<svg xmlns="http://www.w3.org/2000/svg" xmlns:xlink="http://www.w3.org/1999/xlink" width="1368" height="486" viewBox="0 0 1368 486">
    <defs>
        <clipPath id="clip-path">
            <path id="Path_18419" data-name="Path 18419" d="M0 0h1366v486H0z" transform="translate(0 48)" style="fill:url(#linear-gradient)"/>
        </clipPath>
        <clipPath id="clip-path-2">
            <path id="Path_18413" data-name="Path 18413" d="M507.47 432.184V112.17h-67.843v44.73H434.2v-1.289h-3.01v-5.844h-13.85v5.844h-6.628v-45.392h-9.638V97.26h-25.9V75.218h-6.02V62.894h-3.01v-9.075h-4.823v-14.91H355.9V18.164h-3.617v20.745h-7.226v14.91h-3.617v9.075h-4.815v12.324h-4.69v84.922h-6.147V177h-8.438v-32.414h-19.283v-5.835h-6.029v-24.639h-6.628v-12.968h-6.619V84.937H264.33V101.8h-9.638v18.8h-4.216v-10.381h-9.039v61.591h-7.825V91.425h-5.422V70.68h-23.5v32.42h-9.031v57.7h-5.422v-37.613H183V98.558h-12.039V54.463h-16.873V11.031h-4.216V.005h-31.326v11.026h-3.609V120.6h-4.823v-13.621H90.838V120.6H81.2v11.661h-8.167v-8.3h-25.75V147.3H40.5v-10.215H18.091V164.8H0v267.384z" style="fill:url(#linear-gradient)"/>
        </clipPath>
        <clipPath id="clip-path-5">
            <path id="Path_18311" data-name="Path 18311" d="M704.451 785.174a.672.672 0 0 0 .571.762.591.591 0 0 0 .1.005.673.673 0 1 0-.668-.767m.436-3.983a.671.671 0 0 0 .609.73.468.468 0 0 0 .062 0 .673.673 0 0 0 .062-1.344h-.06a.673.673 0 0 0-.672.614m.31-4.013a.675.675 0 0 0 .63.716h.043a.673.673 0 0 0 .043-1.344h-.045a.673.673 0 0 0-.672.629m.218-4.021a.674.674 0 0 0 .644.7h.029a.672.672 0 0 0 .03-1.344h-.034a.672.672 0 0 0-.669.642m.137-4.023a.67.67 0 0 0 .655.689h.019a.673.673 0 0 0 .013-1.346h-.015a.672.672 0 0 0-.672.657m.057-4.026a.676.676 0 0 0 .671.676.673.673 0 0 0 0-1.346h-.005a.673.673 0 0 0-.671.67m.649-4.715a.673.673 0 0 0 .008 1.346h.008a.673.673 0 0 0-.006-1.347h-.01m-.1-4.045a.673.673 0 0 0 .019 1.346h.022a.674.674 0 0 0-.021-1.347h-.02m-.172-4.042a.671.671 0 0 0-.638.706.675.675 0 0 0 .673.641h.032a.673.673 0 0 0-.031-1.345h-.034m-.239-4.039a.674.674 0 0 0-.63.716.672.672 0 0 0 .671.63.263.263 0 0 0 .043 0 .673.673 0 0 0-.042-1.345h-.044m-.312-4.032a.673.673 0 0 0 .057 1.344.453.453 0 0 0 .057 0 .673.673 0 0 0 .614-.724.672.672 0 0 0-.668-.617h-.059m-.38-4.026a.672.672 0 0 0-.6.735.676.676 0 0 0 .671.606.62.62 0 0 0 .067-.005.676.676 0 0 0 .6-.738.675.675 0 0 0-.669-.607h-.069m-.452-4.018a.673.673 0 0 0 .081 1.341c.024 0 .051 0 .078-.005a.673.673 0 1 0-.159-1.336m-.52-4.01a.674.674 0 0 0 .089 1.341.555.555 0 0 0 .092-.008.673.673 0 0 0-.087-1.34.643.643 0 0 0-.093.006m-.592-4a.673.673 0 0 0 .1 1.338.631.631 0 0 0 .1-.008.673.673 0 0 0-.1-1.338.686.686 0 0 0-.1.008m-.662-3.988a.673.673 0 0 0 .113 1.336.8.8 0 0 0 .116-.008.674.674 0 0 0-.112-1.338.66.66 0 0 0-.117.01m-.735-3.975a.672.672 0 0 0 .127 1.333.743.743 0 0 0 .127-.01.674.674 0 0 0-.126-1.335.691.691 0 0 0-.128.012m-.808-3.961a.674.674 0 0 0 .138 1.333.824.824 0 0 0 .14-.014.674.674 0 1 0-.278-1.319m-.88-3.946a.674.674 0 0 0 .15 1.331.716.716 0 0 0 .151-.016.674.674 0 0 0-.151-1.331.662.662 0 0 0-.15.017m-.957-3.926a.674.674 0 0 0 .164 1.328.661.661 0 0 0 .162-.019.674.674 0 0 0-.163-1.329.692.692 0 0 0-.163.02m-1.031-3.907a.674.674 0 0 0 .175 1.325.689.689 0 0 0 .178-.024.674.674 0 0 0-.353-1.3m-1.1-3.886a.673.673 0 0 0 .188 1.32.659.659 0 0 0 .189-.027.674.674 0 0 0-.188-1.32.668.668 0 0 0-.19.028m-1.182-3.865a.674.674 0 0 0 .2 1.317.66.66 0 0 0 .2-.032.673.673 0 1 0-.4-1.285m-1.261-3.837a.673.673 0 0 0 .213 1.311.734.734 0 0 0 .215-.035.673.673 0 1 0-.428-1.276m-1.338-3.813a.673.673 0 0 0 .229 1.306.664.664 0 0 0 .226-.038.674.674 0 1 0-.455-1.269m-1.414-3.784a.668.668 0 1 0 .241-.045.668.668 0 0 0-.241.045m-1.5-3.754a.674.674 0 0 0 .256 1.3.652.652 0 0 0 .253-.051.673.673 0 0 0-.509-1.247m-1.573-3.719a.673.673 0 0 0-.35.886.675.675 0 0 0 .883.353.673.673 0 1 0-.534-1.236m-1.656-3.686a.674.674 0 0 0 .283 1.287.649.649 0 0 0 .28-.062.674.674 0 0 0-.563-1.225m-1.735-3.647a.673.673 0 0 0 .3 1.279.673.673 0 0 0 0-1.347.683.683 0 0 0-.3.068m-1.815-3.609a.673.673 0 0 0 .309 1.271.65.65 0 0 0 .3-.073.673.673 0 0 0-.614-1.2m-1.9-3.566a.674.674 0 0 0 .323 1.266.646.646 0 0 0 .318-.083.671.671 0 0 0 .272-.913.671.671 0 0 0-.913-.272m-1.974-3.522a.673.673 0 0 0 .334 1.258.68.68 0 0 0 .334-.089.674.674 0 0 0-.335-1.258.66.66 0 0 0-.332.089m-2.057-3.476a.673.673 0 0 0 .347 1.25.651.651 0 0 0 .348-.1.673.673 0 0 0-.695-1.152m-2.136-3.426a.673.673 0 1 0 .36-.1.67.67 0 0 0-.36.1m-2.217-3.377a.674.674 0 0 0 .375 1.234.66.66 0 0 0 .374-.113.674.674 0 0 0-.749-1.12m-2.294-3.323a.673.673 0 0 0 .385 1.225.687.687 0 0 0 .388-.121.677.677 0 0 0 .164-.94.673.673 0 0 0-.937-.164m-2.372-3.267a.671.671 0 1 0 .4-.131.667.667 0 0 0-.4.131m-2.451-3.21a.674.674 0 1 0 .412-.141.673.673 0 0 0-.412.141m-2.526-3.148a.672.672 0 0 0 .425 1.193.664.664 0 0 0 .426-.151.673.673 0 1 0-.851-1.042m-2.6-3.089a.673.673 0 0 0 .436 1.185.673.673 0 0 0 .512-1.112.672.672 0 0 0-.948-.073m-2.674-3.027a.675.675 0 1 0 .449-.171.67.67 0 0 0-.449.171m-2.747-2.96a.673.673 0 1 0 .462-.183.672.672 0 0 0-.462.183m-2.815-2.892a.673.673 0 1 0 .954 0 .667.667 0 0 0-.477-.2.68.68 0 0 0-.476.2m-2.876-2.82a.676.676 0 0 0 .016.953.685.685 0 0 0 .469.188.673.673 0 1 0-.485-1.142m-2.949-2.755a.67.67 0 1 0 .5-.219.673.673 0 0 0-.5.219m-3.013-2.688a.674.674 0 1 0 .506-.229.673.673 0 0 0-.506.229m-3.075-2.615a.671.671 0 1 0 .516-.242.671.671 0 0 0-.516.242m-3.135-2.543a.673.673 0 0 0 .108.945.663.663 0 0 0 .42.146.672.672 0 0 0 .42-1.2.672.672 0 0 0-.945.107m-3.191-2.466a.67.67 0 0 0 .127.943.659.659 0 0 0 .407.14.674.674 0 1 0-.533-1.083m-3.247-2.4a.672.672 0 1 0 .546-.279.672.672 0 0 0-.546.279m-3.3-2.327a.676.676 0 0 0 .17.937.658.658 0 0 0 .385.121.673.673 0 1 0-.555-1.058m-3.35-2.249a.676.676 0 1 0 .564-.3.673.673 0 0 0-.564.3m-3.4-2.179a.672.672 0 1 0 .57-.315.673.673 0 0 0-.57.315m-3.444-2.1a.672.672 0 0 0 .232.924.683.683 0 0 0 .347.094.673.673 0 1 0-.576-1.018m-3.487-2.033a.673.673 0 0 0 .248.918.661.661 0 0 0 .334.089.673.673 0 1 0 0-1.346.673.673 0 0 0-.585.339m-3.531-1.961a.677.677 0 0 0 .269.916.658.658 0 0 0 .32.081.673.673 0 0 0 .326-1.263.667.667 0 0 0-.322-.083.674.674 0 0 0-.591.349m-3.568-1.885a.675.675 0 0 0 .288.908.665.665 0 0 0 .31.075.673.673 0 1 0-.6-.983m-3.6-1.818a.673.673 0 1 0 .9-.3.679.679 0 0 0-.3-.07.67.67 0 0 0-.6.374M600.268 588a.674.674 0 0 0 .323.9.669.669 0 0 0 .894-.323.673.673 0 0 0-.321-.9.673.673 0 0 0-.9.32m-3.67-1.678a.673.673 0 0 0 .337.891.663.663 0 0 0 .275.059.674.674 0 0 0 0-1.347.668.668 0 0 0-.612.4m-3.7-1.608a.674.674 0 0 0 .353.886.7.7 0 0 0 .264.054.674.674 0 1 0-.617-.94m-3.732-1.54a.675.675 0 0 0 .369.878.653.653 0 0 0 .253.051.674.674 0 0 0 .253-1.3.673.673 0 0 0-.878.369M585.4 581.7a.674.674 0 1 0 .872-.385.667.667 0 0 0-.242-.046.676.676 0 0 0-.628.43m-3.784-1.405a.674.674 0 0 0 .4.862.629.629 0 0 0 .232.043.674.674 0 1 0-.633-.9m-3.805-1.344a.672.672 0 0 0 .415.856.712.712 0 0 0 .221.038.674.674 0 0 0 0-1.347.669.669 0 0 0-.633.453m-3.829-1.282a.673.673 0 0 0 .431.851.623.623 0 0 0 .208.035.674.674 0 1 0-.638-.886m-3.849-1.217a.673.673 0 0 0 .442.843.658.658 0 0 0 .2.03.672.672 0 0 0 .2-1.314.673.673 0 0 0-.843.444m-3.867-1.158a.672.672 0 1 0 .835-.455.69.69 0 0 0-.192-.027.667.667 0 0 0-.643.483m-3.886-1.1a.674.674 0 0 0 .469.829.706.706 0 0 0 .18.024.673.673 0 0 0 .18-1.322.687.687 0 0 0-.179-.024.673.673 0 0 0-.65.492m-3.9-1.039a.674.674 0 0 0 .482.821.616.616 0 0 0 .169.024.673.673 0 0 0 .17-1.325.663.663 0 0 0-.17-.022.675.675 0 0 0-.651.5m-3.916-.983a.673.673 0 0 0 .493.816.692.692 0 0 0 .162.019.674.674 0 0 0 .161-1.328.663.663 0 0 0-.161-.02.675.675 0 0 0-.654.512m-3.929-.926a.674.674 0 0 0 .5.808.749.749 0 0 0 .154.016.673.673 0 0 0 .151-1.328.688.688 0 0 0-.152-.017.673.673 0 0 0-.656.521m-3.943-.872a.673.673 0 0 0 .517.8.822.822 0 0 0 .142.014.673.673 0 1 0-.66-.816m-3.953-.819a.676.676 0 0 0 .528.795.731.731 0 0 0 .132.013.673.673 0 1 0-.66-.808m-3.964-.767a.671.671 0 1 0 .661-.548.674.674 0 0 0-.661.548m-3.972-.716a.675.675 0 0 0 .547.781.8.8 0 0 0 .116.011.674.674 0 1 0-.663-.792m-3.983-.665a.673.673 0 0 0 .557.773.782.782 0 0 0 .11.008.673.673 0 0 0 .108-1.338.664.664 0 0 0-.107-.009.676.676 0 0 0-.665.566m-3.991-.617a.673.673 0 1 0 .665-.573.676.676 0 0 0-.665.573m-4-.571a.675.675 0 0 0 .573.759c.033 0 .065.005.095.005a.674.674 0 0 0 .091-1.341.69.69 0 0 0-.093-.006.675.675 0 0 0-.666.583m-4-.525a.673.673 0 0 0 .584.751.5.5 0 0 0 .086.008.673.673 0 0 0 .083-1.341.654.654 0 0 0-.088-.006.674.674 0 0 0-.666.588m-4.007-.479a.672.672 0 0 0 .59.746c.027 0 .054.005.078.005a.673.673 0 0 0 .078-1.341.653.653 0 0 0-.079 0 .672.672 0 0 0-.667.594m-4.015-.434a.672.672 0 0 0 .6.738.615.615 0 0 0 .07.005.674.674 0 0 0 .07-1.344.7.7 0 0 0-.07 0 .672.672 0 0 0-.671.6m-4.018-.393a.675.675 0 0 0 .606.735h.065a.673.673 0 0 0 .062-1.344.634.634 0 0 0-.064 0 .671.671 0 0 0-.668.609m-4.023-.35a.673.673 0 0 0 .614.727.437.437 0 0 0 .059 0 .673.673 0 0 0 .054-1.344h-.055a.672.672 0 0 0-.672.616m-4.026-.307a.672.672 0 0 0 .622.719.287.287 0 0 0 .048 0 .673.673 0 0 0 .051-1.344h-.054a.672.672 0 0 0-.668.624m-4.029-.269a.669.669 0 0 0 .628.713h.043a.674.674 0 0 0 .043-1.346h-.044a.671.671 0 0 0-.669.632m-4.031-.229a.674.674 0 0 0 .636.708h.038a.674.674 0 0 0 .035-1.346h-.035a.674.674 0 0 0-.673.639m-4.037-.194a.676.676 0 0 0 .644.7h.032a.672.672 0 0 0 .03-1.344h-.03a.675.675 0 0 0-.676.642m-4.034-.153a.674.674 0 0 0 .649.7h.024a.673.673 0 0 0 .024-1.346h-.025a.672.672 0 0 0-.672.65m-4.037-.119a.674.674 0 0 0 .654.692h.019a.673.673 0 0 0 .016-1.346h-.02a.669.669 0 0 0-.669.655m-16.155-.035a.671.671 0 0 0 .673.671.673.673 0 1 0-.676-.671m12.116-.046a.673.673 0 0 0 .662.684h.011a.673.673 0 0 0 .011-1.346h-.01a.674.674 0 0 0-.674.662m-16.171-.049a.676.676 0 0 0 .649.7h.024a.673.673 0 0 0 .024-1.347h-.025a.676.676 0 0 0-.673.65m12.132 0a.673.673 0 0 0 .668.679h.005a.673.673 0 0 0 .008-1.347h-.005a.678.678 0 0 0-.676.668m-4.039-.013a.673.673 0 1 0 .676-.673.673.673 0 0 0-.676.673m-12.137-.226a.673.673 0 0 0 .625.719h.048a.674.674 0 0 0 .046-1.346h-.049a.673.673 0 0 0-.67.627m-4.031-.374a.669.669 0 0 0 .6.738.634.634 0 0 0 .07 0 .672.672 0 0 0 .07-1.341.654.654 0 0 0-.07 0 .671.671 0 0 0-.668.6m-4.018-.509a.674.674 0 0 0 .576.759.5.5 0 0 0 .092.006.673.673 0 0 0 .092-1.339.69.69 0 0 0-.093-.006.675.675 0 0 0-.667.58m-4-.635a.671.671 0 0 0 .549.775.563.563 0 0 0 .116.011.674.674 0 0 0 .11-1.338.65.65 0 0 0-.114-.009.671.671 0 0 0-.662.561m-3.972-.77a.672.672 0 0 0 .525.794.712.712 0 0 0 .135.014.673.673 0 0 0 .135-1.333.663.663 0 0 0-.137-.014.673.673 0 0 0-.658.539m-3.943-.9a.672.672 0 0 0 .5.811.658.658 0 0 0 .159.019.673.673 0 0 0 .159-1.328.683.683 0 0 0-.158-.019.672.672 0 0 0-.655.517m-3.907-1.042a.673.673 0 0 0 .469.829.682.682 0 0 0 .18.025.674.674 0 1 0-.649-.854m-3.867-1.182a.674.674 0 0 0 .436.846.707.707 0 0 0 .208.032.673.673 0 1 0-.644-.878m-3.819-1.328a.673.673 0 1 0 .634-.444.675.675 0 0 0-.634.444M419 554.182a.674.674 0 0 0 .369.878.655.655 0 0 0 .253.051.674.674 0 1 0-.622-.929m-3.7-1.624a.675.675 0 0 0 .331.894.691.691 0 0 0 .28.059.673.673 0 1 0-.611-.953m-3.63-1.775a.675.675 0 0 0 .3.9.682.682 0 0 0 .3.073.673.673 0 0 0 .3-1.274.662.662 0 0 0-.3-.074.677.677 0 0 0-.6.37m-3.547-1.934a.675.675 0 0 0 .256.918.667.667 0 0 0 .329.086.673.673 0 1 0-.584-1m-3.458-2.09a.676.676 0 0 0 .215.929.662.662 0 0 0 .355.1.673.673 0 1 0-.571-1.031m-3.353-2.246a.668.668 0 1 0 .552-.291.671.671 0 0 0-.552.291m-3.245-2.4a.673.673 0 0 0 .533 1.083.673.673 0 0 0 .409-1.209.664.664 0 0 0-.407-.139.673.673 0 0 0-.536.265m-3.124-2.559a.677.677 0 0 0 .078.951.685.685 0 0 0 .436.159.673.673 0 1 0-.514-1.11m-2.992-2.706a.673.673 0 1 0 .491-.214.67.67 0 0 0-.491.214m-2.854-2.855a.675.675 0 1 0 .468-.189.675.675 0 0 0-.468.189m-2.703-2.99a.672.672 0 0 0 .444 1.18.661.661 0 0 0 .442-.167.673.673 0 0 0-.886-1.013m-2.553-3.124a.675.675 0 1 0 .418-.145.672.672 0 0 0-.418.145m-2.391-3.248a.673.673 0 0 0-.159.94.68.68 0 0 0 .549.286.674.674 0 1 0-.391-1.223m-2.232-3.361a.673.673 0 1 0 .929.2.671.671 0 0 0-.929-.2m-2.065-3.463a.672.672 0 0 0 .337 1.255.652.652 0 0 0 .334-.089.672.672 0 1 0-.67-1.166m-1.9-3.557a.671.671 0 0 0-.288.9.672.672 0 0 0 .6.364.654.654 0 0 0 .307-.075.671.671 0 0 0 .291-.907.673.673 0 0 0-.6-.367.666.666 0 0 0-.309.076m-1.737-3.641a.673.673 0 0 0 .283 1.285.651.651 0 0 0 .28-.062.673.673 0 1 0-.563-1.223m-1.575-3.714a.674.674 0 0 0 .253 1.3.657.657 0 0 0 .256-.051.673.673 0 0 0-.509-1.247m-1.419-3.776a.673.673 0 0 0 .229 1.306.61.61 0 0 0 .226-.04.673.673 0 1 0-.455-1.266m-1.266-3.829a.673.673 0 0 0 .2 1.314.748.748 0 0 0 .2-.03.674.674 0 1 0-.407-1.285m-1.115-3.878a.673.673 0 0 0 .178 1.322.575.575 0 0 0 .177-.024.673.673 0 0 0-.355-1.3m-.975-3.916a.675.675 0 0 0 .156 1.33.6.6 0 0 0 .153-.019.673.673 0 0 0-.156-1.329.7.7 0 0 0-.154.017m-.835-3.945a.673.673 0 0 0 .132 1.333.733.733 0 0 0 .132-.013.673.673 0 0 0-.131-1.333.679.679 0 0 0-.133.013m-.706-3.975a.674.674 0 0 0 .11 1.338.732.732 0 0 0 .11-.008.674.674 0 0 0-.111-1.339.682.682 0 0 0-.109.009m-.579-3.991a.67.67 0 0 0-.576.757.677.677 0 0 0 .665.584.524.524 0 0 0 .091-.008.673.673 0 1 0-.18-1.333m-.461-4.01a.674.674 0 0 0 .07 1.344.607.607 0 0 0 .07-.005.672.672 0 0 0 .6-.738.676.676 0 0 0-.671-.6.669.669 0 0 0-.069 0m-.347-4.02a.673.673 0 0 0 .051 1.344h.051a.674.674 0 0 0-.048-1.346h-.054m-.24-4.029a.672.672 0 0 0 .032 1.344h.035a.673.673 0 0 0-.033-1.345h-.035m-.14-4.037a.673.673 0 0 0 .019 1.346h.016a.677.677 0 0 0 .657-.692.674.674 0 0 0-.672-.657h-.02m-.714-3.364a.671.671 0 0 0 .673.671.673.673 0 1 0-.676-.671" transform="translate(-363.139 -459.449)" style="fill:none"/>
        </clipPath>
        <clipPath id="clip-path-6">
            <path id="Path_18313" data-name="Path 18313" d="M694.027 765.353a.71.71 0 0 0 .34 1.334.7.7 0 0 0 .338-.088.709.709 0 1 0-.678-1.246m3.607-2.168a.71.71 0 1 0 .391-.117.7.7 0 0 0-.391.119m3.394-2.48a.708.708 0 0 0 .446 1.26.708.708 0 0 0 .553-1.152.708.708 0 0 0-1-.108m3.133-2.792a.709.709 0 1 0 .5-.2.707.707 0 0 0-.5.2m2.8-3.107a.708.708 0 1 0 .553-.266.709.709 0 0 0-.553.266m2.387-3.417a.71.71 0 0 0 .241.974.724.724 0 0 0 .366.1.71.71 0 0 0 0-1.419.714.714 0 0 0-.61.344m1.89-3.706a.71.71 0 0 0 .377.93.729.729 0 0 0 .275.054.709.709 0 1 0-.652-.985m1.314-3.939a.711.711 0 0 0 .516.863.725.725 0 0 0 .173.02.71.71 0 0 0 .17-1.4.721.721 0 0 0-.172-.021.71.71 0 0 0-.688.538m.7-4.092a.709.709 0 0 0 .641.772.527.527 0 0 0 .065 0 .71.71 0 0 0 .068-1.416h-.068a.71.71 0 0 0-.707.642m.763-4.9a.709.709 0 0 0-.673.744.712.712 0 0 0 .709.675h.034a.709.709 0 0 0-.032-1.417h-.036m-.576-4.225a.709.709 0 0 0 .125 1.407.608.608 0 0 0 .125-.011.709.709 0 0 0-.125-1.407.691.691 0 0 0-.125.011m-1.059-4.129a.708.708 0 0 0 .2 1.388.727.727 0 0 0 .2-.028.709.709 0 1 0-.4-1.359m-1.461-4.007a.709.709 0 0 0 .264 1.368.724.724 0 0 0 .264-.051.71.71 0 0 0-.264-1.369.7.7 0 0 0-.264.052m-1.791-3.87a.708.708 0 0 0 .312 1.345.7.7 0 0 0 .315-.074.709.709 0 0 0-.316-1.344.7.7 0 0 0-.311.073m-2.063-3.732a.708.708 0 1 0 .356-.1.707.707 0 0 0-.356.1m-2.284-3.6a.71.71 0 1 0 .393-.118.708.708 0 0 0-.393.118m-2.463-3.482a.71.71 0 0 0 .417 1.283.694.694 0 0 0 .42-.139.708.708 0 0 0-.837-1.143m-2.585-3.394a.711.711 0 0 0 .429 1.277.725.725 0 0 0 .426-.142.71.71 0 0 0-.854-1.135m-2.468-3.479a.713.713 0 0 0-.182.988.708.708 0 1 0 .182-.985m-2.313-3.584a.709.709 0 0 0 .377 1.311.7.7 0 0 0 .375-.108.709.709 0 0 0-.752-1.2m-2.145-3.683a.71.71 0 1 0 .348-.092.707.707 0 0 0-.348.092m-1.969-3.783a.708.708 0 1 0 .317-.076.7.7 0 0 0-.317.076m-1.785-3.874a.71.71 0 0 0 .287 1.359.689.689 0 0 0 .284-.062.708.708 0 1 0-.57-1.3m-1.572-3.967a.709.709 0 0 0 .25 1.373.7.7 0 0 0 .25-.045.705.705 0 0 0 .414-.911.712.712 0 0 0-.914-.414m-1.353-4.044a.709.709 0 0 0 .213 1.385.691.691 0 0 0 .213-.032.706.706 0 0 0 .463-.888.705.705 0 0 0-.888-.463m-1.13-4.115a.71.71 0 0 0 .173 1.4.726.726 0 0 0 .176-.023.71.71 0 0 0-.174-1.4.72.72 0 0 0-.175.022m-.9-4.169a.709.709 0 0 0 .136 1.4.768.768 0 0 0 .139-.011.71.71 0 0 0-.137-1.407.693.693 0 0 0-.138.014m-.67-4.211a.708.708 0 0 0 .1 1.41c.031 0 .065 0 .1-.005a.711.711 0 0 0 .6-.8.7.7 0 0 0-.8-.6m-.437-4.245a.709.709 0 0 0 .06 1.416.387.387 0 0 0 .059 0 .709.709 0 0 0-.057-1.416h-.062m-.2-4.259a.71.71 0 0 0 .02 1.419h.02a.71.71 0 0 0-.018-1.419h-.021m-.7-3.576a.706.706 0 0 0 .69.726h.02a.708.708 0 0 0 .017-1.416h-.021a.706.706 0 0 0-.706.69m.23-4.3a.707.707 0 0 0 .65.763.345.345 0 0 0 .057 0 .709.709 0 0 0 .056-1.416h-.058a.709.709 0 0 0-.705.652m.465-4.277a.706.706 0 0 0 .607.8.527.527 0 0 0 .094.008.71.71 0 0 0 .1-1.413.72.72 0 0 0-.1-.007.706.706 0 0 0-.7.614m.7-4.248a.708.708 0 0 0 .562.831.742.742 0 0 0 .136.014.71.71 0 1 0-.7-.845m.928-4.2a.709.709 0 1 0 .86-.516.7.7 0 0 0-.174-.022.711.711 0 0 0-.686.538m1.158-4.146a.71.71 0 0 0 .468.888.75.75 0 0 0 .21.031.714.714 0 0 0 .678-.5.705.705 0 0 0-.469-.885.7.7 0 0 0-.209-.032.709.709 0 0 0-.676.5m1.379-4.078a.708.708 0 0 0 .42.911.685.685 0 0 0 .247.046.71.71 0 0 0 0-1.421.713.713 0 0 0-.666.464m1.6-4a.711.711 0 0 0 .372.934.691.691 0 0 0 .278.059.71.71 0 1 0-.65-.993m1.816-3.9a.711.711 0 1 0 .637-.392.71.71 0 0 0-.637.392m2.026-3.8a.707.707 0 0 0 .266.965.69.69 0 0 0 .349.094.709.709 0 1 0-.616-1.058m2.233-3.683a.71.71 0 1 0 .6-.326.709.709 0 0 0-.6.326m2.429-3.556a.706.706 0 0 0 .156.99.72.72 0 0 0 .417.136.71.71 0 1 0-.574-1.126m2.62-3.417a.711.711 0 1 0 .551-.261.708.708 0 0 0-.551.261m2.806-3.266a.712.712 0 1 0 .527-.233.709.709 0 0 0-.527.233m2.982-3.11a.709.709 0 0 0-.009 1 .713.713 0 0 0 1 .005.709.709 0 0 0-1-1.01m3.147-2.94a.712.712 0 0 0 .471 1.243.7.7 0 0 0 .468-.179.71.71 0 0 0-.939-1.064m3.308-2.761a.708.708 0 0 0 .44 1.266.7.7 0 0 0 .437-.15.709.709 0 1 0-.877-1.115m3.448-2.574a.708.708 0 1 0 .408-.131.712.712 0 0 0-.408.131m3.587-2.378a.71.71 0 0 0 .377 1.311.7.7 0 0 0 .374-.107.709.709 0 1 0-.752-1.2m3.712-2.18a.708.708 0 0 0 .343 1.328.673.673 0 0 0 .341-.088.708.708 0 1 0-.684-1.24m3.822-1.975a.7.7 0 0 0-.329.945.709.709 0 1 0 .639-1.017.7.7 0 0 0-.31.073m3.9-1.794a.708.708 0 1 0 .283-.059.711.711 0 0 0-.283.059m3.973-1.629a.709.709 0 0 0 .255 1.371.746.746 0 0 0 .258-.048.709.709 0 0 0-.513-1.323m4.035-1.473a.71.71 0 0 0 .23 1.382.724.724 0 0 0 .23-.039.71.71 0 0 0-.231-1.381.7.7 0 0 0-.229.039m4.086-1.314a.706.706 0 1 0 .205-.031.7.7 0 0 0-.205.031m89.006-.84a.709.709 0 0 0 .011 1.419h.012a.71.71 0 0 0-.013-1.419h-.01m-4.963.687a.71.71 0 0 0 .7.724h.014a.708.708 0 0 0 .014-1.416h-.016a.705.705 0 0 0-.708.693m9.2-.837a.708.708 0 0 0 .037 1.416h.04a.709.709 0 0 0-.04-1.417h-.037m-13.456.649a.707.707 0 0 0 .667.746h.039a.709.709 0 0 0 .039-1.416h-.041a.706.706 0 0 0-.7.671m-75.65-.823a.71.71 0 0 0 .179 1.4.8.8 0 0 0 .182-.023.71.71 0 1 0-.36-1.373m93.345-.139a.71.71 0 0 0 .065 1.416h.065a.71.71 0 0 0-.063-1.417h-.067m-21.95.619a.708.708 0 0 0 .642.772.485.485 0 0 0 .065 0 .71.71 0 0 0 .065-1.416h-.062a.712.712 0 0 0-.71.644m26.164-1.09a.708.708 0 0 0 .091 1.41.519.519 0 0 0 .094-.006.708.708 0 0 0-.091-1.411.685.685 0 0 0-.094.006m-30.4.6a.714.714 0 0 0 .616.795.433.433 0 0 0 .088.006.708.708 0 0 0 .088-1.41.726.726 0 0 0-.089-.005.709.709 0 0 0-.7.621m-62.985-1a.709.709 0 0 0 .154 1.4.73.73 0 0 0 .156-.017.709.709 0 0 0-.309-1.385m58.774.315a.712.712 0 0 0 .536.849.727.727 0 0 0 .156.017.71.71 0 0 0 .156-1.4.706.706 0 0 0-.848.534m38.805-.553a.709.709 0 0 0 .119 1.407.909.909 0 0 0 .122-.008.71.71 0 0 0-.241-1.4m-93.377-.624a.71.71 0 0 0 .131 1.407.683.683 0 0 0 .131-.014.709.709 0 0 0-.127-1.406.721.721 0 0 0-.134.013m97.537-.182a.71.71 0 0 0 .15 1.4.673.673 0 0 0 .148-.017.71.71 0 1 0-.3-1.388m-47.16.564a.711.711 0 0 0 .576.823.575.575 0 0 0 .122.012.709.709 0 0 0 .122-1.408.7.7 0 0 0-.123-.011.709.709 0 0 0-.7.587m-46.149-1.1a.709.709 0 0 0 .108 1.41.692.692 0 0 0 .108-.008.709.709 0 0 0-.106-1.41.721.721 0 0 0-.109.009m41.93.462a.707.707 0 0 0 .6.8.618.618 0 0 0 .1.009.71.71 0 0 0 .1-1.413.722.722 0 0 0-.1-.007.709.709 0 0 0-.7.611m55.5-.9a.71.71 0 0 0 .179 1.4.648.648 0 0 0 .176-.023.709.709 0 1 0-.355-1.373M763.465 574a.709.709 0 0 0 .085 1.413.409.409 0 0 0 .085-.006.709.709 0 0 0-.083-1.413.763.763 0 0 0-.088.005m33.442.534a.707.707 0 0 0 .627.783.348.348 0 0 0 .077.006.71.71 0 0 0 .079-1.416.723.723 0 0 0-.078 0 .709.709 0 0 0-.705.632m-29.177-.982a.71.71 0 0 0 .062 1.416.449.449 0 0 0 .063 0 .709.709 0 0 0-.063-1.416h-.062m24.926.593a.713.713 0 0 0 .65.766.4.4 0 0 0 .056 0 .709.709 0 0 0 .06-1.416h-.058a.709.709 0 0 0-.708.652m-20.65-.911a.708.708 0 0 0 .04 1.416h.043a.709.709 0 0 0-.041-1.417h-.042m16.39.638a.71.71 0 0 0 .669.746.191.191 0 0 0 .04 0 .71.71 0 0 0 .039-1.419h-.037a.713.713 0 0 0-.712.671m-12.108-.829a.708.708 0 0 0 .02 1.416h.023a.708.708 0 0 0-.017-1.417h-.026m7.843.676a.714.714 0 0 0 .692.729h.017a.71.71 0 0 0 .02-1.419h-.021a.71.71 0 0 0-.709.69m-3.556-.744a.706.706 0 1 0 .006 0h-.006m80.147.023a.709.709 0 0 0 .207 1.387.651.651 0 0 0 .207-.031.709.709 0 1 0-.414-1.356m4.024-1.323a.71.71 0 0 0 .235 1.379.677.677 0 0 0 .236-.043.709.709 0 1 0-.471-1.337m3.958-1.5a.71.71 0 0 0 .267 1.368.745.745 0 0 0 .266-.051.71.71 0 0 0-.267-1.369.708.708 0 0 0-.266.052m3.891-1.671a.708.708 0 0 0 .295 1.354.691.691 0 0 0 .3-.065.709.709 0 0 0-.3-1.353.7.7 0 0 0-.294.065m3.811-1.845a.706.706 0 1 0 .327-.08.708.708 0 0 0-.327.08m3.72-2.018a.709.709 0 0 0 .352 1.325.689.689 0 0 0 .352-.094.709.709 0 0 0-.7-1.232m3.627-2.183a.709.709 0 0 0 .38 1.308.72.72 0 0 0 .38-.111.711.711 0 0 0-.76-1.2m3.524-2.341a.71.71 0 0 0 .409 1.291.722.722 0 0 0 .406-.128.71.71 0 0 0-.814-1.164m3.417-2.5a.711.711 0 0 0 .431 1.274.7.7 0 0 0 .431-.148.708.708 0 0 0-.431-1.272.718.718 0 0 0-.432.145m3.3-2.645a.71.71 0 1 0 .456-.166.708.708 0 0 0-.456.166m3.184-2.789a.706.706 0 1 0 .48-.188.708.708 0 0 0-.48.188m3.062-2.923a.712.712 0 1 0 .5-.207.708.708 0 0 0-.5.207m2.943-3.05a.71.71 0 0 0 .522 1.192.71.71 0 0 0 .482-1.229.712.712 0 0 0-.484-.19.7.7 0 0 0-.518.227m2.813-3.157a.707.707 0 1 0 .537-.248.7.7 0 0 0-.537.248m2.687-3.272a.711.711 0 0 0 .116 1 .7.7 0 0 0 .44.153.709.709 0 1 0-.556-1.149m2.565-3.371a.708.708 0 1 0 .573-.292.71.71 0 0 0-.573.292m2.443-3.465a.706.706 0 0 0 .19.985.7.7 0 0 0 .4.122.707.707 0 0 0 .4-1.294.7.7 0 0 0-.4-.123.711.711 0 0 0-.587.311m2.321-3.547a.708.708 0 1 0 .6-.331.708.708 0 0 0-.6.331m2.2-3.624a.709.709 0 0 0 .253.97.722.722 0 0 0 .358.1.712.712 0 0 0 .616-.352.708.708 0 1 0-1.223-.715m2.086-3.695a.713.713 0 0 0 .284.965.729.729 0 0 0 .34.085.71.71 0 1 0-.624-1.05m1.932-3.763a.711.711 0 0 0 .332.948.7.7 0 0 0 .306.071.709.709 0 1 0-.638-1.019m1.739-3.854a.707.707 0 0 0 .377.928.684.684 0 0 0 .275.057.71.71 0 1 0-.652-.985m1.541-3.939a.708.708 0 0 0 .425.908.719.719 0 0 0 .241.043.709.709 0 1 0-.667-.951m1.336-4.013a.714.714 0 0 0 .471.888.765.765 0 0 0 .21.031.711.711 0 1 0-.681-.919m1.135-4.072a.708.708 0 0 0 .514.86.753.753 0 0 0 .173.02.709.709 0 0 0 .173-1.4.7.7 0 0 0-.859.517m.922-4.129a.713.713 0 0 0 .559.834.79.79 0 0 0 .139.014.711.711 0 0 0 .136-1.407.692.692 0 0 0-.135-.013.714.714 0 0 0-.7.572m.715-4.169a.707.707 0 0 0 .6.8.69.69 0 0 0 .1.008.709.709 0 1 0-.7-.812m.5-4.2a.706.706 0 0 0 .638.772.542.542 0 0 0 .068 0 .708.708 0 0 0 .066-1.413.676.676 0 0 0-.068 0 .706.706 0 0 0-.7.642m.287-4.22a.71.71 0 0 0 .678.741h.031a.71.71 0 0 0 .028-1.419h-.031a.708.708 0 0 0-.706.679m.774-4.943a.709.709 0 0 0-.7.715.709.709 0 0 0 .709.7h.006a.71.71 0 0 0 0-1.419h-.01m-.176-4.262a.709.709 0 0 0 .04 1.416h.042a.709.709 0 0 0-.041-1.417h-.042m-.4-4.248a.709.709 0 0 0 .077 1.413.751.751 0 0 0 .079 0 .709.709 0 0 0-.156-1.41m-.61-4.223a.71.71 0 0 0 .114 1.41.726.726 0 0 0 .114-.009.71.71 0 0 0-.114-1.411.7.7 0 0 0-.114.009m-.823-4.186a.71.71 0 0 0 .148 1.4.683.683 0 0 0 .15-.017.71.71 0 1 0-.3-1.388m-1.036-4.137a.709.709 0 0 0 .181 1.393.788.788 0 0 0 .185-.023.709.709 0 1 0-.366-1.37m-1.25-4.072a.711.711 0 0 0-.457.894.71.71 0 0 0 .673.491.641.641 0 0 0 .218-.037.709.709 0 0 0-.216-1.383.719.719 0 0 0-.221.035m-1.45-4.012a.711.711 0 1 0 .251-.046.708.708 0 0 0-.251.046m-1.652-3.933a.71.71 0 0 0 .287 1.359.731.731 0 0 0 .287-.06.711.711 0 0 0-.287-1.361.7.7 0 0 0-.287.061m-1.853-3.84a.709.709 0 0 0-.315.951.709.709 0 1 0 .312-.951m-2.057-3.737a.71.71 0 0 0 .355 1.325.691.691 0 0 0 .352-.1.709.709 0 1 0-.707-1.229m-2.259-3.615a.707.707 0 1 0 .386-.116.7.7 0 0 0-.386.116m-2.46-3.485a.707.707 0 0 0-.15.99.707.707 0 0 0 .573.289.722.722 0 0 0 .42-.136.709.709 0 0 0-.42-1.282.7.7 0 0 0-.42.138m-2.65-3.343a.711.711 0 0 0 .454 1.257.686.686 0 0 0 .448-.162.708.708 0 0 0-.45-1.256.716.716 0 0 0-.452.161m-2.829-3.187a.709.709 0 1 0 .479-.188.7.7 0 0 0-.479.188m-3-3.028a.709.709 0 1 0 .507-.215.706.706 0 0 0-.507.215m-3.161-2.866a.71.71 0 0 0 .068 1 .694.694 0 0 0 .466.176.709.709 0 1 0-.533-1.178m-3.3-2.7a.709.709 0 1 0 1-.116.7.7 0 0 0-.438-.153.712.712 0 0 0-.558.27m-3.431-2.534a.71.71 0 1 0 .988-.165.7.7 0 0 0-.41-.133.709.709 0 0 0-.578.3m-3.547-2.372a.71.71 0 1 0 .6-.324.71.71 0 0 0-.6.324m-3.646-2.216a.709.709 0 0 0 .253.971.681.681 0 0 0 .357.1.709.709 0 1 0-.61-1.07m-3.734-2.063a.71.71 0 1 0 .959-.292.7.7 0 0 0-.332-.084.71.71 0 0 0-.627.376m-3.811-1.921a.713.713 0 0 0 .326.95.714.714 0 0 0 .951-.326.711.711 0 0 0-1.277-.624m-3.865-1.805a.709.709 0 0 0 .349.942.728.728 0 0 0 .295.065.71.71 0 1 0-.644-1.008m-3.891-1.751a.705.705 0 1 0 .646-.421.706.706 0 0 0-.646.421m-3.9-1.728a.71.71 0 0 0 .36.936.734.734 0 0 0 .286.06.71.71 0 0 0 .287-1.359.7.7 0 0 0-.285-.061.708.708 0 0 0-.649.424m-3.9-1.731a.708.708 0 0 0 .358.937.747.747 0 0 0 .29.06.709.709 0 1 0-.647-1M862.619 398a.71.71 0 0 0 .349.939.684.684 0 0 0 .3.065.709.709 0 1 0-.644-1m-3.856-1.825a.71.71 0 0 0 .332.948.7.7 0 0 0 .306.071.71.71 0 1 0-.638-1.019m-3.814-1.91a.713.713 0 0 0 .306.956.747.747 0 0 0 .324.077.71.71 0 1 0-.63-1.033m-3.754-2.023a.712.712 0 0 0 .275.965.712.712 0 0 0 .965-.278.711.711 0 0 0-.276-.965.7.7 0 0 0-.343-.089.71.71 0 0 0-.622.367m-3.675-2.165a.708.708 0 0 0 .238.973.69.69 0 0 0 .366.1.71.71 0 0 0 .369-1.317.7.7 0 0 0-.365-.1.712.712 0 0 0-.608.342m-3.57-2.333a.71.71 0 1 0 .587-.311.707.707 0 0 0-.587.311m-3.445-2.517a.71.71 0 1 0 .568-.281.71.71 0 0 0-.568.281m-3.281-2.724a.7.7 0 1 0 .535-.246.707.707 0 0 0-.535.246m-3.093-2.94a.711.711 0 0 0 0 1 .719.719 0 0 0 .5.207.7.7 0 0 0 .5-.21.709.709 0 1 0-1-1m-2.869-3.155a.707.707 0 1 0 .463-.173.71.71 0 0 0-.463.173m-2.665-3.329a.705.705 0 1 0 .432-.149.706.706 0 0 0-.432.149m-2.471-3.479a.711.711 0 0 0 .4 1.3.71.71 0 1 0 0-1.42.7.7 0 0 0-.4.123M823.851 366a.709.709 0 1 0 .365-.1.713.713 0 0 0-.365.1m-2.069-3.732a.712.712 0 1 0 .331-.082.708.708 0 0 0-.331.082m-1.859-3.837a.708.708 0 0 0-.349.939.708.708 0 1 0 1.285-.593.708.708 0 0 0-.942-.346m-1.651-3.936a.71.71 0 1 0 .261-.05.705.705 0 0 0-.261.05m-1.439-4.015a.709.709 0 0 0 .227 1.382.692.692 0 0 0 .227-.037.71.71 0 1 0-.454-1.345m-1.22-4.087a.706.706 0 0 0-.491.874.715.715 0 0 0 .684.52.633.633 0 0 0 .19-.028.708.708 0 1 0-.38-1.365m-1-4.149a.709.709 0 0 0 .153 1.4.747.747 0 0 0 .156-.017.71.71 0 0 0-.154-1.4.718.718 0 0 0-.155.017m-.78-4.194a.71.71 0 0 0 .116 1.41.568.568 0 0 0 .119-.011.709.709 0 1 0-.236-1.4m-.55-4.228a.709.709 0 0 0 .079 1.413h.08a.71.71 0 0 0-.076-1.415.681.681 0 0 0-.083 0m-.324-4.254a.709.709 0 0 0 .04 1.416h.043a.709.709 0 0 0-.041-1.417h-.041m-.088-4.265a.709.709 0 0 0 0 1.419.709.709 0 0 0 0-1.419h-.005m-.6-3.592a.709.709 0 0 0 .67.746h.039a.71.71 0 0 0 .037-1.419h-.037a.712.712 0 0 0-.71.673" transform="translate(-682.089 -321.037)" style="fill:#fff"/>
        </clipPath>
        <clipPath id="clip-path-7">
            <path id="Path_18314" data-name="Path 18314" d="M709.315 1893.411a.958.958 0 1 0 .655-.259.934.934 0 0 0-.655.259" transform="translate(-709.04 -1893.152)" style="fill:none"/>
        </clipPath>
        <clipPath id="clip-path-8">
            <path id="Rectangle_6171" data-name="Rectangle 6171" style="fill:none" d="M0 0h10.527v19.657H0z"/>
        </clipPath>
        <clipPath id="clip-path-9">
            <path id="Rectangle_6172" data-name="Rectangle 6172" style="fill:none" d="M0 0h41.458v222.787H0z"/>
        </clipPath>
        <clipPath id="clip-path-10">
            <path id="Path_18331" data-name="Path 18331" d="M853.316 1036.151a65.271 65.271 0 0 0-12.351 6.133 47.956 47.956 0 0 0-12.16 10.432 50.756 50.756 0 0 0-8.963 16.064c-.9 2.558-1.712 5.241-2.508 8.006a969.471 969.471 0 0 0-2.886 10.3c-1.488 5.45-2.975 10.837-4.559 15.73-.878 2.723-1.774 5.261-2.749 7.592a17.325 17.325 0 0 1-6.486 8.9 4.376 4.376 0 0 0-1.859 3.883 4.434 4.434 0 0 0 2.318 3.648c.368.189.756.4 1.144.59 5.7 2.683 12.186 3.527 17.151 7.579 3.427 3.744 12.175 6.056 16.767 7.04a3.264 3.264 0 0 0 3.789-2.131c1.941-5.484 5.08-11.426 6.685-16.34.729-2.314 5.246-13.152 6.015-15.444a29.321 29.321 0 0 1 3.672-7.436 19.56 19.56 0 0 0 5.456-2.253 25.462 25.462 0 0 0 8.455-8.485 55.547 55.547 0 0 0 5.174-10.727c.149-.388.277-.778.426-1.166a52.54 52.54 0 0 0 2.169-8.833c.2-1.189.359-2.38.477-3.53 0-.164.025-.308.027-.472.048-.554.1-1.356.127-1.89.01-.781.017-1.295-.015-2.015a17.535 17.535 0 0 0-2.045-7.283 11.118 11.118 0 0 1-.95-2.911c-.969-4.6-.886-11.112-3.4-13.571-2.033-1.949-5.952-2.7-9.933-2.7a30.591 30.591 0 0 0-8.983 1.284" transform="translate(-798.785 -1034.867)" style="fill:none"/>
        </clipPath>
        <clipPath id="clip-path-11">
            <path id="Rectangle_6175" data-name="Rectangle 6175" style="fill:none" d="M0 0h15.122v19.771H0z"/>
        </clipPath>
        <clipPath id="clip-path-12">
            <path id="Rectangle_6176" data-name="Rectangle 6176" style="fill:none" d="M0 0h96.997v86.281H0z"/>
        </clipPath>
        <clipPath id="clip-path-13">
            <path id="Path_18341" data-name="Path 18341" d="m987.291 1035.081 9.842 27.649 3.933-7.487-9.221-21.346z" transform="translate(-987.291 -1033.897)" style="fill:none"/>
        </clipPath>
        <clipPath id="clip-path-14">
            <path id="Rectangle_6183" data-name="Rectangle 6183" style="fill:none" d="M0 0h32.346v44.598H0z"/>
        </clipPath>
        <clipPath id="clip-path-15">
            <path id="Path_18312" data-name="Path 18312" d="M1142.308 306.3a.748.748 0 0 0 1.058 1.058.748.748 0 0 0-1.058-1.058" transform="translate(-1142.09 -306.092)" style="fill:none"/>
        </clipPath>
        <clipPath id="clip-path-16">
            <path id="Rectangle_6205" data-name="Rectangle 6205" transform="translate(24 -22.832)" style="fill:none" d="M0 0h33.122v45.665H0z"/>
        </clipPath>
        <clipPath id="clip-path-17">
            <path id="Rectangle_6207" data-name="Rectangle 6207" style="fill:none" d="M0 0h33.12v45.665H0z"/>
        </clipPath>
        <clipPath id="clip-path-18">
            <path id="Rectangle_6177" data-name="Rectangle 6177" style="fill:none" d="M0 0h.008v.108H0z"/>
        </clipPath>
        <linearGradient id="linear-gradient" x1=".5" x2=".5" y2="1" gradientUnits="objectBoundingBox">
            <stop offset="0" stop-color="#344379"/>
            <stop offset="1" stop-color="#344379"/>
        </linearGradient>
        <linearGradient id="linear-gradient-8" x1="-.284" y1="1.436" x2="-.284" y2="1.436" gradientUnits="objectBoundingBox">
            <stop offset="0" stop-color="#a8d2e4"/>
            <stop offset=".201" stop-color="#bfdeeb"/>
            <stop offset=".539" stop-color="#e2f0f6"/>
            <stop offset=".817" stop-color="#f7fbfc"/>
            <stop offset="1" stop-color="#fff"/>
        </linearGradient>
        <linearGradient id="linear-gradient-9" x1="-141.806" y1="61.766" x2="-141.606" y2="61.766" xlink:href="#linear-gradient-8"/>
        <linearGradient id="linear-gradient-10" x1="-2.6" y1="5.158" x2="-2.597" y2="5.158" gradientUnits="objectBoundingBox">
            <stop offset="0" stop-color="#fff"/>
            <stop offset="1" stop-color="#ededed"/>
        </linearGradient>
        <linearGradient id="linear-gradient-11" x1="-11.214" y1="18.299" x2="-11.202" y2="18.299" xlink:href="#linear-gradient-10"/>
        <linearGradient id="linear-gradient-12" x1="-228.412" y1="381.22" x2="-228.212" y2="381.22" xlink:href="#linear-gradient-8"/>
        <radialGradient id="radial-gradient" cx=".353" cy=".5" r=".5" gradientUnits="objectBoundingBox">
            <stop offset="0" stop-color="#8eb1ff"/>
            <stop offset="1" stop-color="#1464d3"/>
        </radialGradient>
        <style>
            
        </style>
    </defs>
    <g id="Group_12867" data-name="Group 12867" transform="translate(0 -48)">
        <path id="Path_695" data-name="Path 695" d="M0 0h1366v486H0z" transform="translate(0 48)" style="fill:url(#radial-gradient)"/>
        <g id="Mask_Group_4" data-name="Mask Group 4" transform="translate(2)" style="opacity:.18;clip-path:url(#clip-path)">
            <g id="Group_12791" data-name="Group 12791">
                <g id="Group_12788" data-name="Group 12788" transform="translate(0 101.816)" style="clip-path:url(#clip-path-2)">
                    <path id="Path_18414" data-name="Path 18414" d="M0 0h507.47v432.179H0z" transform="translate(0 .005)" style="fill:url(#linear-gradient)"/>
                </g>
                <g id="Group_12789" data-name="Group 12789" transform="translate(506.47 101.816)" style="clip-path:url(#clip-path-2)">
                    <path id="Path_18415" data-name="Path 18415" d="M0 0h507.47v432.179H0z" transform="translate(0 .005)" style="fill:url(#linear-gradient)"/>
                </g>
                <g id="Group_12790" data-name="Group 12790" transform="translate(1011.94 101.816)" style="clip-path:url(#clip-path-2)">
                    <path id="Path_18417" data-name="Path 18417" d="M0 0h507.47v432.179H0z" transform="translate(0 .005)" style="fill:url(#linear-gradient)"/>
                </g>
            </g>
        </g>
        <g id="Group_12787" data-name="Group 12787" transform="translate(-925 1303.506)">
            <path id="Path_18307" data-name="Path 18307" d="m350.763 396.17-6.163-2.336 6.183-18.8z" transform="translate(875.372 -1587.759)" style="fill:#c2dbea"/>
            <path id="Path_18308" data-name="Path 18308" d="m344.6 442 2.572 4.458.1-3.446z" transform="translate(875.372 -1635.923)" style="fill:#fff"/>
            <path id="Path_18309" data-name="Path 18309" d="m357.835 431.913 2.447 4.247.988-5.527z" transform="translate(865.853 -1627.749)" style="fill:#5689bf"/>
            <path id="Path_18310" data-name="Path 18310" d="m357.835 391.923 9.129 1.862-6.664-18.752z" transform="translate(865.853 -1587.759)" style="fill:#fff"/>
        </g>
        <g id="Group_12735" data-name="Group 12735" transform="translate(300.168 114.369)">
            <g id="Group_12734" data-name="Group 12734" style="clip-path:url(#clip-path-5)">
                <path id="Rectangle_6166" data-name="Rectangle 6166" style="fill:url(#linear-gradient-8)" d="M0 0h343.819v326.492H0z"/>
            </g>
        </g>
        <g id="Group_12739" data-name="Group 12739" transform="translate(288.303 76.788)">
            <g id="Group_12738" data-name="Group 12738" style="clip-path:url(#clip-path-6)">
                <path id="Rectangle_6168" data-name="Rectangle 6168" transform="translate(-.011)" style="fill:#fff" d="M0 0h249.834v445.649H0z"/>
            </g>
        </g>
        <g id="Group_12741" data-name="Group 12741" transform="translate(298.312 523.048)">
            <g id="Group_12740" data-name="Group 12740" style="clip-path:url(#clip-path-7)">
                <path id="Rectangle_6169" data-name="Rectangle 6169" style="fill:url(#linear-gradient-9)" d="M0 0h1.857v1.845H0z"/>
            </g>
        </g>
        <path id="Path_18315" data-name="Path 18315" d="m1052.959 1355.454 4 6.265-.043.032a528.04 528.04 0 0 1 2.812 4.248c-1.244 5.18 4.112 10.885 4.112 10.885a38.991 38.991 0 0 1 2.825 4.414c3.065 4.783 4.458 4.7 4.458 4.7 1-.047.8-.96.488-1.607.925 1.588 1.85 1.989 2.416 2.041a.882.882 0 0 0 .994-.561 2.257 2.257 0 0 0-.208-1.62c1.406 2.271 2.45 1.926 2.7 1.812a.521.521 0 0 1 .119-.073c1.109-.367.23-2.147-.208-2.861 1.2 1.572 2.192.765 2.192.765.823-.6-.091-2.88-.091-2.88l-5.921-11.156c-1.957-4.528-8-8.3-8-8.3l-1.61-2.243-4.632-7.927z" transform="translate(-626.928 -1029.53)" style="fill:#f79873"/>
        <path id="Rectangle_6170" data-name="Rectangle 6170" transform="rotate(-31.79 793.148 -583.267)" style="fill:#fff" d="M0 0h11.324v5.397H0z"/>
        <path id="Path_18316" data-name="Path 18316" d="m988.052 1156.693-11.865 7.366-24.347-37.4-3.161-4.852a35.974 35.974 0 0 1-3.558-7.837c-.191-.558-.338-1.1-.456-1.588l-13.379-57.928c-1.809-7.807 2.441-15.6 10.292-17.246s15.452 3.573 16.055 11.571l4.661 61.795z" transform="translate(-550.18 -831.832)" style="fill:#172f57"/>
        <g id="Group_12744" data-name="Group 12744" transform="translate(394.941 275.167)" style="mix-blend-mode:multiply;isolation:isolate;opacity:.3">
            <g id="Group_12743" data-name="Group 12743">
                <g id="Group_12742" data-name="Group 12742" style="clip-path:url(#clip-path-8)">
                    <path id="Path_18317" data-name="Path 18317" d="m975.96 1245.32-3.161-4.852a35.965 35.965 0 0 1-3.558-7.836l10.527-6.969-6.66 8.557a27.011 27.011 0 0 0 2.852 11.1" transform="translate(-969.241 -1225.663)" style="fill:#172f57"/>
                </g>
            </g>
        </g>
        <path id="Path_18318" data-name="Path 18318" d="m869.356 1769.164-2.475 35.161a8.041 8.041 0 0 0 .854 4.214c1.57 3.079 3.659 3.89 6.065 5.579a24.988 24.988 0 0 0 5.481 2.858l2.069 5.241-5.848-.09-18.573-12.027-.158-40.886z" transform="translate(-503.597 -1292.161)" style="fill:#f79873"/>
        <path id="Path_18319" data-name="Path 18319" d="M848.884 1879.405s-5.1 6.957-4.9 15.559l43.806-.01a2.041 2.041 0 0 0 1.112-3.752c-1.214-.788-3.174-1.225-6.334-.638a4.5 4.5 0 0 1-2.692-.331l-8.637-3.95-1.694 2.62z" transform="translate(-495.554 -1361.462)" style="fill:#fff"/>
        <path id="Path_18320" data-name="Path 18320" d="M690.233 1233.224s16.231-3.768 20.971 4.472 12.154 17.757 21.089 8.129l12.37-35.641z" transform="translate(-398.906 -940.765)" style="fill:#375683"/>
        <path id="Path_18321" data-name="Path 18321" d="m902.7 1084.407-1.43 1.855-17.137 41.8-1.826 4.449-6.045 9.093-.381.56-9.292 13.952a33.024 33.024 0 0 1-2.509 3.32l-12.056 13.921c-5.724 3.565-9.874 7.286-8.833 10.2 0 0-.23.309.03.071.492 1.266 1.972 2.379 4.759 3.253a19.6 19.6 0 0 0 8.1.968c7.782 8.271 19.727 6.952 19.727 6.952-3.1-4.656-3.26-14.222-2.957-20.611a33.937 33.937 0 0 1 2.4-11.032l.016-.039c2.012-4.987 4.1-9.637 6.94-12.722 12.034-13.084 22.132-28.493 24.958-46.363a27.314 27.314 0 0 0-4.47-19.624" transform="translate(-494.961 -861.698)" style="fill:#172f57"/>
        <path id="Path_18322" data-name="Path 18322" d="M829.3 1286.433v198.528h-19.051c-2.352-40.447-9.13-89.538-4.91-107.828L795.3 1303.87c-15.908-22.642-1.779-36.771.735-39.02.235-.206.367-.309.367-.309l.191.117 12.909 8.6z" transform="translate(-460.269 -974.937)" style="fill:#172f57"/>
        <g id="Group_12747" data-name="Group 12747" transform="translate(327.577 287.237)" style="mix-blend-mode:multiply;isolation:isolate;opacity:.3">
            <g id="Group_12746" data-name="Group 12746">
                <g id="Group_12745" data-name="Group 12745" style="clip-path:url(#clip-path-9)">
                    <path id="Path_18323" data-name="Path 18323" d="M829.3 1468.794v12.159h-19.051c-2.352-40.446-9.13-89.538-4.91-107.828l-10.039-73.263c-15.908-22.642-1.779-36.771.735-39.02l.559-.191 7.439-2.485 5.469 11.086 3.029 6.131s-13.732 9.777-6.66 24.964l5.117 72.042h11.762l-13 4.661s-10.45 82.32 19.55 91.744" transform="translate(-787.846 -1258.166)" style="fill:#172f57"/>
                </g>
            </g>
        </g>
        <path id="Path_18324" data-name="Path 18324" d="M1125.534 1046.368c-4.258-2.505-3.306-12.021 2.126-21.253s13.287-14.686 17.545-12.181l2.9 1.707-19.672 33.434z" transform="translate(-670.878 -816.384)" style="fill:#15284b"/>
        <path id="Path_18325" data-name="Path 18325" d="M1134.379 1049.952c4.258 2.505 12.114-2.948 17.546-12.181s6.384-18.748 2.126-21.253l-2.9-1.706-19.672 33.434z" transform="translate(-676.288 -817.947)" style="fill:#15284b"/>
        <path id="Path_18326" data-name="Path 18326" d="M1137.7 1031.518c-4.541 7.717-5.865 15.595-3.442 18.949a3.269 3.269 0 0 0 .237.3 3.807 3.807 0 0 0 .962.807c3.92 2.307 11.281-2.932 16.441-11.7s6.161-17.745 2.241-20.051a3.8 3.8 0 0 0-1.172-.449 3.182 3.182 0 0 0-.377-.062c-4.109-.488-10.352 4.5-14.89 12.208" transform="translate(-677.287 -820.754)" style="fill:#9ab4d3"/>
        <path id="Path_18327" data-name="Path 18327" d="M1137.7 1031.518c-4.541 7.717-5.865 15.595-3.442 18.949a3.269 3.269 0 0 0 .237.3c4.094.849 10.584-4.2 15.265-12.154s5.938-16.076 3.208-19.242a3.182 3.182 0 0 0-.377-.062c-4.109-.488-10.352 4.5-14.89 12.208" transform="translate(-677.287 -820.754)" style="fill:#fff"/>
        <path id="Path_18328" data-name="Path 18328" d="M1125.83 1103.863c1.282.754 2.227 1.526 2.1 1.747l-3.3 5.611c-.13.221-1.275-.211-2.557-.965s-2.215-1.545-2.085-1.766l3.3-5.611c.13-.221 1.264.23 2.546.984" transform="translate(-669.055 -873.274)" style="fill:#15284b"/>
        <path id="Path_18329" data-name="Path 18329" d="M1087.518 1136.517a2.064 2.064 0 0 0 3.558 2.094l13.643-23.189-3.558-2.093z" transform="translate(-648.474 -879.878)" style="fill:#15284b"/>
        <path id="Path_18330" data-name="Path 18330" d="m1025.691 1140.354 20.155-12.674 7.438-4.324a5.112 5.112 0 0 1 3.463-.326 28.909 28.909 0 0 0 3.271-.006s1.461-.695 3.119 1.342l2.272 1.228s1.193.191.619 1.808a3.308 3.308 0 0 1-1.988.555 1.919 1.919 0 0 1-1.278 2.721s.594 2.8-1.765 3.389a1.9 1.9 0 0 1-1.714 2.286c.7 3.825-4.846 3.55-6.872 2.6l-4.667-2.644-17.643 11.762z" transform="translate(-609.787 -885.857)" style="fill:#f79873"/>
        <g id="Group_12751" data-name="Group 12751" transform="translate(331.64 204.312)">
            <g id="Group_12750" data-name="Group 12750" style="clip-path:url(#clip-path-10)">
                <path id="Rectangle_6174" data-name="Rectangle 6174" transform="rotate(-89.267 53.715 54.502)" style="fill:url(#linear-gradient-10)" d="M0 0h108.548v81.341H0z"/>
            </g>
        </g>
        <path id="Path_18332" data-name="Path 18332" d="M800.654 1178.955a4.374 4.374 0 0 0-1.859 3.882 4.431 4.431 0 0 0 2.317 3.647c.368.19.756.4 1.144.591 5.7 2.684 12.187 3.527 17.151 7.579.849-6.937-3.141-1.932-1.335-16.176 1.874-14.736 22.945-21.086 22.945-21.086a37.4 37.4 0 0 0 24.221-27.649l-55.348 32.719c-.878 2.723-1.774 5.261-2.75 7.592a17.327 17.327 0 0 1-6.486 8.9" transform="translate(-467.146 -890.198)" style="fill:#cde0eb"/>
        <path id="Path_18333" data-name="Path 18333" d="m1016.351 1035.679-2.3 1.649-3.26 2.342-7.525 5.438-.751.538-.86-2.053-7.187-17.076 7.663-4.271 6.866-3.767 7.755 5.176z" transform="translate(-590.158 -820.253)" style="fill:#f79873"/>
        <g id="Group_12754" data-name="Group 12754" transform="translate(407.73 205.085)" style="opacity:.5;mix-blend-mode:multiply;isolation:isolate">
            <g id="Group_12753" data-name="Group 12753">
                <g id="Group_12752" data-name="Group 12752" style="clip-path:url(#clip-path-11)">
                    <path id="Path_18334" data-name="Path 18334" d="m1016.58 1051.282-7.525 5.438-5.377-14.8c3.86-1.9 3.685-1.533 8.046-.6s5.886-4.369 5.886-4.369l1.192 1.183z" transform="translate(-1003.679 -1036.95)" style="fill:#f79873"/>
                </g>
            </g>
        </g>
        <path id="Path_18335" data-name="Path 18335" d="M997.529 1088.618a48.126 48.126 0 0 0 1.333-7.149 31.653 31.653 0 0 0-.732-10.987l-5.1-20.686 4.723 10.73a11.539 11.539 0 0 0 .942 2.912 17.6 17.6 0 0 1 2.049 7.274c.026.717.026 1.236 0 2.012a42.111 42.111 0 0 1-.154 2.357h.009a53.466 53.466 0 0 1-.461 3.541 53.726 53.726 0 0 1-2.184 8.817c-.143.407-.279.8-.421 1.174" transform="translate(-589.254 -839.94)" style="fill:#cde0eb"/>
        <path id="Path_18336" data-name="Path 18336" d="m1018.138 1090.95-.711 7.453-3.222.035z" transform="translate(-602.567 -865.811)" style="fill:#f6da5c"/>
        <path id="Path_18337" data-name="Path 18337" d="M780.055 1087.116c-.61.433-1.26.876-1.925 1.288a49.845 49.845 0 0 1-4.388 2.448 69.69 69.69 0 0 1-8.987 3.682 82.198 82.198 0 0 1-3.541 1.119c-3.936 1.166-8 2.189-11.8 3.678-17.877 6.986-20.536 18.067-54.487 23.407-3.3.523-6.9.984-10.84 1.391a37.917 37.917 0 0 1 11.243-21.136 33.529 33.529 0 0 1 8.908-5.633c.489-.225.973-.443 1.461-.668a43.548 43.548 0 0 1 6.935-2.291 87.852 87.852 0 0 0 3.378-.992c.18-.061.37-.117.568-.19a3.553 3.553 0 0 1 .356-.114c1.66-.552 5.443-1.74 9.365-2.958 5.782-1.787 11.892-3.659 11.892-3.659a245.873 245.873 0 0 1 10.157-24.068c.84-1.679 1.7-3.378 2.6-5.057a50.13 50.13 0 0 1 20.433-18.6 46.378 46.378 0 0 1 5.9-2.364 51.37 51.37 0 0 1 3.8-1.059c4.957-1.155 10.156-1.828 15.089-.28l.509.176c1.875 23.665-.758 40.832-16.616 51.876" transform="translate(-395.039 -830.11)" style="fill:#172f57"/>
        <g id="Group_12757" data-name="Group 12757" transform="translate(289.043 207.737)" style="mix-blend-mode:multiply;isolation:isolate;opacity:.3">
            <g id="Group_12756" data-name="Group 12756">
                <g id="Group_12755" data-name="Group 12755" style="clip-path:url(#clip-path-12)">
                    <path id="Path_18338" data-name="Path 18338" d="m774.614 1044.089-3.235.919a50.132 50.132 0 0 0-20.434 18.6c-.9 1.68-1.759 3.378-2.6 5.057a245.9 245.9 0 0 0-10.156 24.068s-6.11 1.872-11.893 3.659c-3.922 1.219-7.7 2.407-9.365 2.959a3.358 3.358 0 0 0-.357.114c-.2.073-.387.129-.568.19-1.152.37-2.258.68-3.377.992a43.542 43.542 0 0 0-6.935 2.29c-.489.226-.973.443-1.462.669a.031.031 0 0 1-.018.012 33.374 33.374 0 0 0-8.89 5.621 37.917 37.917 0 0 0-11.243 21.136c3.937-.407 7.537-.868 10.84-1.391-3.017-15.416 22.539-25.573 35.782-29.754l4.684-1.393c1.844-.512 2.952-.775 2.952-.775l5.266 4.945-2.31-6.181c1.19-3.914 12.5-17.708 20.135-24.423l4.656 25.275v-28.636l14.992 7.313z" transform="translate(-684.083 -1044.089)" style="fill:#172f57"/>
                </g>
            </g>
        </g>
        <path id="Path_18340" data-name="Path 18340" d="m954.137 1037.073-6.353 2.974 5.351 3.938-2.152.379s7.837 30.915-16.418 46.493c0 0 29.857-10.182 19.572-53.784" transform="translate(-552.501 -831.942)" style="fill:#375683"/>
        <g id="Group_12764" data-name="Group 12764" transform="translate(401.644 203.952)">
            <g id="Group_12763" data-name="Group 12763" style="clip-path:url(#clip-path-13)">
                <path id="Rectangle_6179" data-name="Rectangle 6179" transform="rotate(-68.142 13.38 19.784)" style="fill:url(#linear-gradient-11)" d="M0 0h31.889v23.52H0z"/>
            </g>
        </g>
        <path id="Path_18342" data-name="Path 18342" d="M1077.9 973.947a8 8 0 0 0 4.378 10.277 7.69 7.69 0 1 0 5.6-14.32 7.519 7.519 0 0 0-9.98 4.043" transform="translate(-642.269 -789.347)" style="fill:#172f57"/>
        <path id="Path_18343" data-name="Path 18343" d="M1082.68 1013.328c-1.148 2.935-1.131 5.686.039 6.143s3.049-1.551 4.2-4.486 1.131-5.685-.039-6.143-3.049 1.551-4.2 4.486" transform="translate(-645.078 -814.154)" style="fill:#fff"/>
        <path id="Path_18344" data-name="Path 18344" d="m1023.184 965.065-7.607 21.43 7.608 2.719 3.633 1.461-3.653 9.885a5.69 5.69 0 0 0 .581.812l.064.081a6.324 6.324 0 0 0 9.746-.233 155.276 155.276 0 0 0 2.907-3.829c1.617-2.2 2.76-3.861 2.76-3.861l2.373.928a.882.882 0 0 0 1.2-.787l.3-7.685a27.925 27.925 0 0 0 3.239-11.861z" transform="translate(-603.429 -786.675)" style="fill:#f79873"/>
        <path id="Path_18345" data-name="Path 18345" d="m1031.54 966.178.119 8.675-5.284 7.362-2.726-1.066-4.543-2.429s-3.554 8.151-9.424 7.087l1.376-3.623a4.758 4.758 0 0 0 .14-2.958c-1.3-4.738-4.714-19.343 2.383-20.075z" transform="translate(-599.438 -782.958)" style="fill:#3b4871"/>
        <path id="Path_18346" data-name="Path 18346" d="m1020.8 949.035 1-2.564a4.364 4.364 0 0 1 5.66-2.471 8.943 8.943 0 0 0 4.834.475l5.934-1.062a20.276 20.276 0 0 1 10.96 1.076l.577.226a5.571 5.571 0 0 1 3.113 7.289l-3.251 8.311z" transform="translate(-606.714 -772.862)" style="fill:#172f57"/>
        <path id="Path_18347" data-name="Path 18347" d="M1071.68 1009.026c-1.148 2.935-1.131 5.686.039 6.143s3.049-1.551 4.2-4.486 1.131-5.686-.039-6.143-3.049 1.55-4.2 4.486" transform="translate(-638.163 -811.449)" style="fill:#fff"/>
        <path id="Rectangle_6180" data-name="Rectangle 6180" transform="rotate(-68.65 353.756 -212.883)" style="fill:#fff" d="M0 0h1.769v18.437H0z"/>
        <path id="Path_18348" data-name="Path 18348" d="M1039.987 1031.58a.925.925 0 0 0-.451-.825.9.9 0 0 0-.312-.112c-8.971-2.866-5.76-11.335-5.76-11.335l-2.886-1.129c-.875-.342-1.016 3.462-1.07 3.772-.21 1.2-1.148 1.935-1.722 2.945-.62 1.091-.216 2.433-.857 3.437-1.735 2.715-5.45 3.506-6.051 6.559l-.063-.023s-2.15 7.6 4.883 11.112a6.71 6.71 0 0 0 9.7-5.72l-.06-.022c.143-.423.278-.848.408-1.265.157-.5.309-.988.483-1.47a10.4 10.4 0 0 1 .78-1.717c.17-.293 2.01-3.338 2.01-3.338a.917.917 0 0 0 .969-.868" transform="translate(-606.527 -820.051)" style="fill:#172f57"/>
        <path id="Path_18349" data-name="Path 18349" d="M1040.875 998.515a3.59 3.59 0 0 0-.015-2.629 2.751 2.751 0 0 0-2.789-1.906s-5.108-.261-3.727 6.137c0 .02.009.041.015.061l1.207 4.614a1.411 1.411 0 0 0 .851.957l.094.037a1.44 1.44 0 0 0 1.858-.791z" transform="translate(-615.077 -804.851)" style="fill:#f79873"/>
        <path id="Rectangle_6181" data-name="Rectangle 6181" transform="rotate(-32.428 637.026 -608.967)" style="fill:#fff" d="M0 0h5.397v11.324H0z"/>
        <path id="Path_18350" data-name="Path 18350" d="M988.266 1108.448s-.312 1.612-.729 4.5-.927 7-1.281 11.945a141.475 141.475 0 0 0-.249 16.827c.139 3.051.439 6.175.88 9.3.206 1.563.556 3.1.823 4.652l1.174 4.78.569 2.446a20.935 20.935 0 0 1 .511 2.572l.379 2.835c.056.47.129.954.17 1.413l.075 1.336c.094 1.779.228 3.564.16 5.289-.009 1.739-.037 3.46-.187 5.123l-.176 2.491-.28 2.417-.284 2.369-.37 2.284a76.644 76.644 0 0 1-.794 4.363 77.759 77.759 0 0 1-.881 4.041c-.59 2.586-1.234 4.924-1.839 6.992s-1.178 3.86-1.675 5.34-.924 2.641-1.227 3.451l-.518 1.318-11.022 4.683-3.2-11.494.107-.184.371-.686a106.662 106.662 0 0 0 3.495-7.322c.761-1.771 1.612-3.783 2.427-6.012a67.737 67.737 0 0 0 1.239-3.489 62.92 62.92 0 0 0 1.193-3.768l.587-1.977.509-2.035.518-2.085.423-2.131c.322-1.438.526-2.9.723-4.377.256-1.489.319-2.972.437-4.484l.086-1.137c.015-.367 0-.706 0-1.063l.01-2.136a16.224 16.224 0 0 0-.16-2.382l-.257-2.5-.016-.156-.008-.078c-.01-.06.077.387.037.177l-.005-.042-.042-.333-.083-.667-.164-1.332c-.1-.886-.236-1.771-.3-2.65-.085-1.758-.246-3.506-.256-5.227-.05-3.444.058-6.8.317-10.018a146.82 146.82 0 0 1 2.455-17.315c1-4.991 2.048-9.087 2.834-11.938s1.319-4.468 1.319-4.468z" transform="translate(-573.702 -876.462)" style="fill:#f6da5c"/>
        <path id="Path_18351" data-name="Path 18351" d="m959.718 1079.043-35.676 21.357 6.417-44.931c1.373-7.9-4.718-14.832-12.734-15.149s-14.048 6.19-14.208 14.21l.019 59.519a10.412 10.412 0 0 0 16.367 8.536l46.8-32.636z" transform="translate(-532.984 -833.975)" style="fill:#172f57"/>
        <path id="Path_18352" data-name="Path 18352" d="M1092.149 1403.774c0 8.932-16.173 28.425-16.173 28.425s-16.173-19.493-16.173-28.425a16.173 16.173 0 1 1 32.345 0" transform="translate(-631.231 -1052.296)" style="fill:#e55056"/>
        <path id="Path_18353" data-name="Path 18353" d="M1096.733 1412.334a9.557 9.557 0 1 1-9.557-9.556 9.557 9.557 0 0 1 9.557 9.556" transform="translate(-642.431 -1061.837)" style="fill:#fff"/>
        <path id="Path_18355" data-name="Path 18355" d="M1084.448 1379a7.75 7.75 0 0 1 4.731 2.82 12.415 12.415 0 0 0 6.009 3.261s1.244-.146 1.018 1.046c0 0-1.436 3.177-8.749-.966 0 0-5.97 1.23-8.151-3.358 0 0 1.239-4.05 5.141-2.8" transform="translate(-643.491 -1046.74)" style="fill:#f79873"/>
        <path id="Path_18356" data-name="Path 18356" d="m286.158 1800.278 13.369 14.779v30.165h-26.738v-30.165z" transform="translate(-136.485 -1311.72)" style="fill:#6979a9"/>
        <path id="Path_18357" data-name="Path 18357" d="M308.79 1800.278h58.758l13.37 14.779h-58.759z" transform="translate(-159.117 -1311.72)" style="fill:#344379"/>
        <path id="Rectangle_6184" data-name="Rectangle 6184" transform="translate(163.043 503.337)" style="fill:#c6d1e0" d="M0 0h58.758v30.165H0z"/>
        <path id="Path_18358" data-name="Path 18358" d="m370.98 1757.325-5.812 6.425v15.577h11.624v-15.577z" transform="translate(-194.558 -1284.719)" style="fill:#c6d1e0"/>
        <path id="Path_18359" data-name="Path 18359" d="M356.66 1757.325h-8.46l-5.812 6.425h8.46z" transform="translate(-180.237 -1284.719)" style="fill:#344379"/>
        <path id="Path_18360" data-name="Path 18360" d="m350.847 1790.2-5.4-6.051h-3.056v-9.526h8.46z" transform="translate(-180.237 -1295.594)" style="fill:#6979a9"/>
        <path id="Path_18361" data-name="Path 18361" d="m446.888 1757.325-5.812 6.425v15.577H452.7v-15.577z" transform="translate(-242.276 -1284.719)" style="fill:#c6d1e0"/>
        <path id="Path_18362" data-name="Path 18362" d="M432.568 1757.325h-8.46l-5.812 6.425h8.46z" transform="translate(-227.956 -1284.719)" style="fill:#344379"/>
        <path id="Path_18363" data-name="Path 18363" d="m426.755 1790.2-5.4-6.051H418.3v-9.526h8.46z" transform="translate(-227.956 -1295.594)" style="fill:#6979a9"/>
        <path id="Path_18364" data-name="Path 18364" d="M454.872 1784.729h-4.88v-3.941a2.44 2.44 0 0 1 4.88 0z" transform="translate(-247.881 -1297.934)" style="fill:#344379"/>
        <path id="Path_18365" data-name="Path 18365" d="m648.935 1714.691-22.824 25.23v51.5h45.649v-51.5z" transform="translate(-358.596 -1257.917)" style="fill:#c6d1e0"/>
        <path id="Path_18366" data-name="Path 18366" d="M536.467 1714.691h-66.44l-22.824 25.23h66.44z" transform="translate(-246.128 -1257.917)" style="fill:#344379"/>
        <path id="Rectangle_6185" data-name="Rectangle 6185" transform="translate(201.075 482.004)" style="fill:#6979a9" d="M0 0h66.44v51.497H0z"/>
        <path id="Path_18367" data-name="Path 18367" d="m834.254 1787.124-11.8 13.046v36.782h23.6v-36.782z" transform="translate(-482.023 -1303.451)" style="fill:#c6d1e0"/>
        <path id="Path_18368" data-name="Path 18368" d="M776.1 1787.124h-34.358l-11.8 13.046H764.3z" transform="translate(-423.867 -1303.451)" style="fill:#344379"/>
        <path id="Rectangle_6186" data-name="Rectangle 6186" transform="translate(306.073 496.719)" style="fill:#6979a9" d="M0 0h34.356v36.782H0z"/>
        <g id="Group_12786" data-name="Group 12786" transform="translate(-1096.535 1325.52)">
            <g id="Group_12737" data-name="Group 12737" transform="translate(1514.795 -1244.489)">
                <g id="Group_12736" data-name="Group 12736" style="clip-path:url(#clip-path-15)">
                    <path id="Rectangle_6167" data-name="Rectangle 6167" style="fill:url(#linear-gradient-12)" d="M0 0h1.495v1.485H0z"/>
                </g>
            </g>
            <path id="Path_18369" data-name="Path 18369" d="m1144.83 242.973 6.96-.892-1.745-21z" transform="translate(370.784 -1490.981)" style="fill:#c2dbea"/>
            <path id="Path_18370" data-name="Path 18370" d="m1159.278 291.335-3.768 3.979.753-3.592z" transform="translate(363.296 -1540.235)" style="fill:#fff"/>
            <path id="Path_18371" data-name="Path 18371" d="m1148.416 276.532-3.586 3.791.346-5.967z" transform="translate(370.784 -1528.331)" style="fill:#5689bf"/>
            <path id="Path_18372" data-name="Path 18372" d="m1133.574 239.182-9.914-.334 11.542-17.766z" transform="translate(385.626 -1490.981)" style="fill:#fff"/>
        </g>
        <path id="Path_18373" data-name="Path 18373" d="M895.259 1648.735v-100.9h7.019v-11.859h10.445v.024h20.32v11.843h20.35v37.827h29.984v31.279h20.823v62.124h-28.914v-.1h-21.893v.1H926.5l-.053-.034H868.84v-30.306z" transform="translate(-511.185 -1145.574)" style="fill:#344379"/>
        <path id="Rectangle_6187" data-name="Rectangle 6187" transform="translate(539.812 465.794)" style="fill:#344379" d="M0 0h89.293v67.707H0z"/>
        <path id="Path_18374" data-name="Path 18374" d="M1823.7 1729.089h.008v-64.05h4.249v64.05h12.678v31.116h-51.365v-95.167h34.43z" transform="translate(-1089.8 -1226.704)" style="fill:#344379"/>
        <path id="Path_18375" data-name="Path 18375" d="M1333.282 1792.319v-13.442l-3.658 2.884v50.007h7.23v-39.449z" transform="translate(-800.85 -1298.267)" style="fill:#6979a9"/>
        <path id="Path_18376" data-name="Path 18376" d="M1353.887 1546.305v107.072h-11.206v32.188h53.429v-139.26z" transform="translate(-809.058 -1152.064)" style="fill:#c6d1e0"/>
        <path id="Path_18377" data-name="Path 18377" d="M1430.634 1412.9h-2.217v25.235h-3.549V1412.9h-2.216v25.235h-2.6v8.561H1397.6v15.747h33.032z" transform="translate(-843.585 -1068.198)" style="fill:#c6d1e0"/>
        <path id="Rectangle_6188" data-name="Rectangle 6188" transform="translate(581.283 344.699)" style="fill:#6979a9" d="M0 0h2.234v25.235H0z"/>
        <path id="Path_18378" data-name="Path 18378" d="M1240.838 1860.815v4.73h-4.163v17.732h7.951v-22.462z" transform="translate(-742.419 -1349.776)" style="fill:#c6d1e0"/>
        <path id="Path_18379" data-name="Path 18379" d="M1067.274 1744.589v-64.138h-17.855v14.12h-9.735v75.323h36.123v-25.305z" transform="translate(-618.583 -1236.393)" style="fill:#c6d1e0"/>
        <path id="Rectangle_6189" data-name="Rectangle 6189" transform="translate(401.233 480.655)" style="fill:#c6d1e0" d="M0 0h15.47v52.846H0z"/>
        <path id="Path_18380" data-name="Path 18380" d="m1669.788 1671.268-9.625-8.977v-43.524l-18.648-17.491v118.84l28.273-.026z" transform="translate(-996.916 -1186.62)" style="fill:#6979a9"/>
        <path id="Path_18381" data-name="Path 18381" d="M1598.827 1636.247v-34.971l-25.217 20.513v98.332h37.278v-73.244z" transform="translate(-954.229 -1186.621)" style="fill:#c6d1e0"/>
        <path id="Rectangle_6190" data-name="Rectangle 6190" transform="translate(389.4 522.447)" style="fill:#6979a9" d="M0 0h8.782v11.055H0z"/>
        <path id="Path_18382" data-name="Path 18382" d="m1291.979 1778.876-4.374 2.884v10.558h-8.148v39.449h18.63v-50.007l3.658-2.884z" transform="translate(-769.313 -1298.267)" style="fill:#c6d1e0"/>
        <path id="Path_18383" data-name="Path 18383" d="m1184.428 1810 5.541 7.112v34.223h5.678v-34.223z" transform="translate(-709.574 -1317.83)" style="fill:#6979a9"/>
        <path id="Path_18384" data-name="Path 18384" d="M1457.892 1456.52v-24.308h-6.351v-25.235h-2.29v-3.5h-.942l-.029 160.113h-22.61v32.188h41.13V1456.52z" transform="translate(-861.228 -1062.278)" style="fill:#6979a9"/>
        <path id="Rectangle_6191" data-name="Rectangle 6191" transform="translate(415.233 480.655)" style="fill:#6979a9" d="M0 0h19.292v52.846H0z"/>
        <path id="Path_18385" data-name="Path 18385" d="M963.943 1827.534v-28.6h-1.107v4.344h-4.753v4.964h-5.86v36.136h15.2v-16.841z" transform="translate(-563.603 -1310.874)" style="fill:#c6d1e0"/>
        <path id="Path_18386" data-name="Path 18386" d="M990.738 1827.534v-19.294h-3.478v-4.964h-2.586v-4.344h-.892v28.6h3.478v16.841h10.14v-16.841z" transform="translate(-583.441 -1310.874)" style="fill:#6979a9"/>
        <path id="Rectangle_6192" data-name="Rectangle 6192" transform="translate(360.313 525.67)" style="fill:#c6d1e0" d="M0 0h18.709v7.831H0z"/>
        <path id="Path_18387" data-name="Path 18387" d="M906.428 1866.308v-14.9h-7.512v2.427h-4.271v23.53h22.161v-11.055z" transform="translate(-527.407 -1343.861)" style="fill:#c6d1e0"/>
        <path id="Path_18388" data-name="Path 18388" d="M931.48 1866.308v-12.475h-2.346v-2.427h-2.759v14.9z" transform="translate(-547.353 -1343.861)" style="fill:#6979a9"/>
        <path id="Rectangle_6193" data-name="Rectangle 6193" transform="translate(376.417 525.67)" style="fill:#6979a9" d="M0 0h7.102v7.831H0z"/>
        <path id="Rectangle_6194" data-name="Rectangle 6194" transform="translate(523.686 470.015)" style="fill:#c6d1e0" d="M0 0h3.35v12.43H0z"/>
        <path id="Path_18389" data-name="Path 18389" d="m1326.62 1761.611-1.676 1.165v-12.43h1.676z" transform="translate(-797.908 -1280.331)" style="fill:#6979a9"/>
        <path id="Path_18390" data-name="Path 18390" d="M1120.012 1744.589v-50.018h-4.812v-14.12h-5.2v89.443h24.657v-25.305z" transform="translate(-662.788 -1236.393)" style="fill:#6979a9"/>
        <path id="Path_18391" data-name="Path 18391" d="m1166.35 1810-10.679 7.112v34.223h16.22v-34.223z" transform="translate(-691.497 -1317.83)" style="fill:#c6d1e0"/>
        <path id="Path_18392" data-name="Path 18392" d="M1224.133 1905.757h-14.591v-9.182h10.131l4.46 2.768z" transform="translate(-725.362 -1372.256)" style="fill:#6979a9"/>
        <path id="Path_18393" data-name="Path 18393" d="M1205.8 1905.757h-10.807v-6.414l5.4-2.768 5.4 2.768z" transform="translate(-716.217 -1372.256)" style="fill:#c6d1e0"/>
        <path id="Rectangle_6195" data-name="Rectangle 6195" transform="translate(429.481 517.031)" style="fill:#6979a9" d="M0 0h21.853v16.47H0z"/>
        <path id="Path_18394" data-name="Path 18394" d="m1121.036 1864.073 3.838 4.357v16.9h2.8v-16.9z" transform="translate(-669.724 -1351.824)" style="fill:#6979a9"/>
        <path id="Path_18395" data-name="Path 18395" d="m1114.007 1864.073-4.153 4.357v16.9h7.991v-16.9z" transform="translate(-662.695 -1351.824)" style="fill:#c6d1e0"/>
        <path id="Path_18396" data-name="Path 18396" d="M1134.491 1890.261v-3.492h-13.87v12.824h17.624v-9.332z" transform="translate(-669.463 -1366.091)" style="fill:#c6d1e0"/>
        <path id="Path_18397" data-name="Path 18397" d="M1163.277 1890.261v-3.492h-5.307v3.492h3.753v9.332h5.3v-9.332z" transform="translate(-692.942 -1366.091)" style="fill:#6979a9"/>
        <path id="Path_18398" data-name="Path 18398" d="M1279.8 1876.776v-11.23h-9.5v-4.73h-12.221v22.462h25.548v-6.5z" transform="translate(-755.879 -1349.777)" style="fill:#6979a9"/>
        <path id="Rectangle_6196" data-name="Rectangle 6196" transform="translate(627.21 510.209)" style="fill:#6979a9" d="M0 0h16.84v4.437H0z"/>
        <path id="Rectangle_6197" data-name="Rectangle 6197" transform="translate(691.176 467.81)" style="fill:#c6d1e0" d="M0 0h15.473v65.691H0z"/>
        <path id="Rectangle_6198" data-name="Rectangle 6198" transform="translate(706.467 467.81)" style="fill:#6979a9" d="M0 0h15.468v65.691H0z"/>
        <path id="Path_18399" data-name="Path 18399" d="M1787.956 1798.933h-1.085v4.344h-2.4v4.964h-3.481v19.294h-6.658v16.841h13.62z" transform="translate(-1080.412 -1310.875)" style="fill:#6979a9"/>
        <path id="Path_18400" data-name="Path 18400" d="M1810.976 1808.24v-4.964h-4.753v-4.344h-1.1v28.6h-3.481v16.841h15.2v-36.133z" transform="translate(-1097.575 -1310.875)" style="fill:#c6d1e0"/>
        <path id="Rectangle_6199" data-name="Rectangle 6199" transform="translate(731.476 526.815)" style="fill:#c6d1e0" d="M0 0h16.095v6.687H0z"/>
        <path id="Rectangle_6200" data-name="Rectangle 6200" transform="translate(709.923 522.447)" style="fill:#6979a9" d="M0 0h8.556v11.055H0z"/>
        <path id="Path_18401" data-name="Path 18401" d="M1858.351 1853.833v-2.427h-7.512v14.9h-10.382v11.055h22.165v-23.53z" transform="translate(-1121.978 -1343.861)" style="fill:#c6d1e0"/>
        <path id="Path_18402" data-name="Path 18402" d="M1859.765 1866.308v-14.9h-2.756v2.427h-2.352v12.475z" transform="translate(-1130.905 -1343.861)" style="fill:#6979a9"/>
        <path id="Rectangle_6201" data-name="Rectangle 6201" transform="translate(724.36 526.815)" style="fill:#6979a9" d="M0 0h7.107v6.687H0z"/>
        <path id="Rectangle_6202" data-name="Rectangle 6202" transform="translate(389.4 522.447)" style="fill:#6979a9" d="M0 0h8.782v11.055H0z"/>
        <path id="Rectangle_6203" data-name="Rectangle 6203" transform="translate(513.066 526.999)" style="fill:#c6d1e0" d="M0 0h5.169v6.502H0z"/>
        <path id="Path_18403" data-name="Path 18403" d="M1383.933 1905.757h-14.588v-9.182h10.13l4.458 2.768z" transform="translate(-825.82 -1372.256)" style="fill:#6979a9"/>
        <path id="Path_18404" data-name="Path 18404" d="M1365.6 1905.757h-10.807v-6.414l5.4-2.768 5.4 2.768z" transform="translate(-816.672 -1372.256)" style="fill:#c6d1e0"/>
        <path id="Path_18405" data-name="Path 18405" d="M1568.878 1868.948V1863h-25.558v-4.418h-30.38v23.293h63.96v-12.923z" transform="translate(-916.089 -1348.37)" style="fill:#c6d1e0"/>
        <path id="Path_18406" data-name="Path 18406" d="M1683.648 1876.427v-5.951h-20.077v5.951h8.02v12.923h20.626v-12.923z" transform="translate(-1010.781 -1355.85)" style="fill:#6979a9"/>
        <path id="Path_18407" data-name="Path 18407" d="M1609.081 1748.642c0 9.146-16.56 29.1-16.56 29.1s-16.559-19.959-16.559-29.1a16.56 16.56 0 1 1 33.119 0" transform="translate(-955.707 -1268.85)" style="fill:#e55056"/>
        <path id="Path_18408" data-name="Path 18408" d="M1613.774 1757.407a9.785 9.785 0 1 1-9.785-9.786 9.785 9.785 0 0 1 9.785 9.786" transform="translate(-967.175 -1278.619)" style="fill:#fff"/>
        <path id="Path_18410" data-name="Path 18410" d="M582.252 1608.195c0 9.146-16.56 29.1-16.56 29.1s-16.559-19.959-16.559-29.1a16.56 16.56 0 1 1 33.119 0" transform="translate(-310.205 -1180.56)" style="fill:#e55056"/>
        <path id="Path_18411" data-name="Path 18411" d="M586.945 1616.959a9.785 9.785 0 1 1-9.785-9.786 9.786 9.786 0 0 1 9.785 9.786" transform="translate(-321.673 -1190.328)" style="fill:#fff"/>
        <g id="Group_12760" data-name="Group 12760" transform="translate(398.466 222.762)" style="mix-blend-mode:multiply;isolation:isolate;opacity:.3">
            <g id="Group_12759" data-name="Group 12759">
                <g id="Group_12758" data-name="Group 12758" style="clip-path:url(#clip-path-18)">
                    <path id="Path_18339" data-name="Path 18339" d="m978.733 1084.651.007.006c0-.148 0-.144-.007-.006" transform="translate(-978.733 -1084.548)" style="fill:#172f57"/>
                </g>
            </g>
        </g>
    </g>
</svg>
